{
  "version": "1.1.6",
  "modules": [
    {
      "id": 2,
      "plugin": "Fundamental",
      "version": "1.4.0",
      "model": "VCMixer",
      "params": [
        {
          "id": 0,
          "value": 0.636000097
        },
        {
          "id": 1,
          "value": 0.907926142
        },
        {
          "id": 2,
          "value": 0.920653045
        },
        {
          "id": 3,
          "value": 0.831558108
        },
        {
          "id": 4,
          "value": 0.882469177
        }
      ],
      "leftModuleId": 1,
      "rightModuleId": 22,
      "pos": [
        60,
        0
      ]
    },
    {
      "id": 22,
      "plugin": "VCV-Recorder",
      "version": "1.0.1",
      "model": "Recorder",
      "params": [
        {
          "id": 0,
          "value": 0.520999193
        },
        {
          "id": 1,
          "value": 0.0
        }
      ],
      "leftModuleId": 2,
      "rightModuleId": 7,
      "data": {
        "format": "wav",
        "path": "/Users/hoveidar/Desktop/recording.wav",
        "incrementPath": false,
        "sampleRate": 44100,
        "depth": 16,
        "bitRate": 320000
      },
      "pos": [
        70,
        0
      ]
    },
    {
      "id": 1,
      "plugin": "Core",
      "version": "1.1.6",
      "model": "AudioInterface",
      "params": [],
      "leftModuleId": 45,
      "rightModuleId": 2,
      "data": {
        "audio": {
          "driver": 6,
          "deviceName": "Speakers (Realtek(R) Audio)",
          "offset": 0,
          "maxChannels": 8,
          "sampleRate": 44100,
          "blockSize": 256
        }
      },
      "pos": [
        50,
        0
      ]
    },
    {
      "id": 7,
      "plugin": "Fundamental",
      "version": "1.4.0",
      "model": "Scope",
      "params": [
        {
          "id": 0,
          "value": 0.0
        },
        {
          "id": 1,
          "value": 0.0
        },
        {
          "id": 2,
          "value": 0.0
        },
        {
          "id": 3,
          "value": 0.0
        },
        {
          "id": 4,
          "value": 14.0
        },
        {
          "id": 5,
          "value": 0.0
        },
        {
          "id": 6,
          "value": 0.0
        },
        {
          "id": 7,
          "value": 0.0
        }
      ],
      "leftModuleId": 22,
      "data": {
        "lissajous": 0,
        "external": 0
      },
      "pos": [
        75,
        0
      ]
    },
    {
      "id": 27,
      "plugin": "Core",
      "version": "1.1.6",
      "model": "MIDIToCVInterface",
      "params": [],
      "rightModuleId": 28,
      "data": {
        "channels": 1,
        "polyMode": 0,
        "clockDivision": 24,
        "lastPitch": 8192,
        "lastMod": 0,
        "midi": {
          "driver": -11,
          "deviceName": "QWERTY keyboard (US)",
          "channel": -1
        }
      },
      "pos": [
        0,
        0
      ]
    },
    {
      "id": 28,
      "plugin": "Fundamental",
      "version": "1.4.0",
      "model": "VCO",
      "params": [
        {
          "id": 0,
          "value": 1.0
        },
        {
          "id": 1,
          "value": 1.0
        },
        {
          "id": 2,
          "value": 12.2040024
        },
        {
          "id": 3,
          "value": -0.00600003498
        },
        {
          "id": 4,
          "value": 0.495000124
        },
        {
          "id": 5,
          "value": 0.710699856
        },
        {
          "id": 6,
          "value": 0.499500096
        }
      ],
      "leftModuleId": 27,
      "rightModuleId": 29,
      "pos": [
        8,
        0
      ]
    },
    {
      "id": 29,
      "plugin": "Fundamental",
      "version": "1.4.0",
      "model": "ADSR",
      "params": [
        {
          "id": 0,
          "value": 0.300499737
        },
        {
          "id": 1,
          "value": 0.5
        },
        {
          "id": 2,
          "value": 0.5
        },
        {
          "id": 3,
          "value": 0.5
        }
      ],
      "leftModuleId": 28,
      "rightModuleId": 38,
      "pos": [
        18,
        0
      ]
    },
    {
      "id": 31,
      "plugin": "Fundamental",
      "version": "1.4.0",
      "model": "VCF",
      "params": [
        {
          "id": 0,
          "value": 0.583998978
        },
        {
          "id": 1,
          "value": 0.212000072
        },
        {
          "id": 2,
          "value": 0.797499955
        },
        {
          "id": 3,
          "value": 1.0
        },
        {
          "id": 4,
          "value": 0.0
        }
      ],
      "leftModuleId": 67,
      "rightModuleId": 56,
      "pos": [
        32,
        1
      ]
    },
    {
      "id": 32,
      "plugin": "cf",
      "version": "1.1.1",
      "model": "PLAYER",
      "params": [
        {
          "id": 0,
          "value": 6.24000216
        },
        {
          "id": 1,
          "value": -1.92999947
        },
        {
          "id": 2,
          "value": 0.0
        },
        {
          "id": 3,
          "value": 0.0870000422
        },
        {
          "id": 4,
          "value": 0.0
        },
        {
          "id": 5,
          "value": 0.0
        },
        {
          "id": 6,
          "value": 0.0
        }
      ],
      "leftModuleId": 35,
      "rightModuleId": 34,
      "data": {
        "lastPath": "C:\\dispersion-lab\\gitshow8\\samples/noise1.wav",
        "oscstate": 0
      },
      "pos": [
        6,
        1
      ]
    },
    {
      "id": 34,
      "plugin": "cf",
      "version": "1.1.1",
      "model": "PLAYER",
      "params": [
        {
          "id": 0,
          "value": 8.35500336
        },
        {
          "id": 1,
          "value": -2.15999961
        },
        {
          "id": 2,
          "value": 0.0
        },
        {
          "id": 3,
          "value": 0.0
        },
        {
          "id": 4,
          "value": 0.0
        },
        {
          "id": 5,
          "value": 0.0
        },
        {
          "id": 6,
          "value": 0.0
        }
      ],
      "leftModuleId": 32,
      "rightModuleId": 67,
      "data": {
        "lastPath": "C:\\dispersion-lab\\gitshow8\\samples\\noise2.wav",
        "oscstate": 0
      },
      "pos": [
        15,
        1
      ]
    },
    {
      "id": 35,
      "plugin": "cf",
      "version": "1.1.1",
      "model": "METRO",
      "params": [
        {
          "id": 0,
          "value": 2.70899987
        },
        {
          "id": 1,
          "value": 0.0
        },
        {
          "id": 2,
          "value": 0.0
        },
        {
          "id": 3,
          "value": 0.0
        }
      ],
      "rightModuleId": 32,
      "data": {
        "onstate": 1
      },
      "pos": [
        0,
        1
      ]
    },
    {
      "id": 38,
      "plugin": "Fundamental",
      "version": "1.4.0",
      "model": "VCMixer",
      "params": [
        {
          "id": 0,
          "value": 1.00000024
        },
        {
          "id": 1,
          "value": 0.596949399
        },
        {
          "id": 2,
          "value": 0.626647711
        },
        {
          "id": 3,
          "value": 0.872720718
        },
        {
          "id": 4,
          "value": 0.885448873
        }
      ],
      "leftModuleId": 29,
      "rightModuleId": 45,
      "pos": [
        26,
        0
      ]
    },
    {
      "id": 45,
      "plugin": "Blamsoft-XFXReverb",
      "version": "1.0.0",
      "model": "Blamsoft-XFXReverb",
      "params": [
        {
          "id": 0,
          "value": 1.0
        },
        {
          "id": 1,
          "value": 0.54099983
        },
        {
          "id": 2,
          "value": 0.472500056
        },
        {
          "id": 3,
          "value": 0.667999923
        },
        {
          "id": 4,
          "value": 0.98900032
        },
        {
          "id": 5,
          "value": 0.407500058
        },
        {
          "id": 6,
          "value": 1.0
        },
        {
          "id": 7,
          "value": 0.976000011
        },
        {
          "id": 8,
          "value": 0.776499987
        }
      ],
      "leftModuleId": 38,
      "rightModuleId": 1,
      "pos": [
        36,
        0
      ]
    },
    {
      "id": 53,
      "plugin": "AudibleInstruments",
      "version": "1.0.0",
      "model": "Clouds",
      "params": [
        {
          "id": 0,
          "value": 0.0
        },
        {
          "id": 1,
          "value": 0.0
        },
        {
          "id": 2,
          "value": 0.0
        },
        {
          "id": 3,
          "value": 1.0
        },
        {
          "id": 4,
          "value": 1.0
        },
        {
          "id": 5,
          "value": 2.0
        },
        {
          "id": 6,
          "value": 1.0
        },
        {
          "id": 7,
          "value": 0.485000104
        },
        {
          "id": 8,
          "value": 0.989000022
        },
        {
          "id": 9,
          "value": 0.542499721
        },
        {
          "id": 10,
          "value": 0.967500269
        },
        {
          "id": 11,
          "value": 0.683999896
        },
        {
          "id": 12,
          "value": 1.0
        }
      ],
      "leftModuleId": 56,
      "rightModuleId": 68,
      "data": {
        "playback": 0,
        "quality": 0,
        "blendMode": 2
      },
      "pos": [
        50,
        1
      ]
    },
    {
      "id": 56,
      "plugin": "AudibleInstruments",
      "version": "1.0.0",
      "model": "Warps",
      "params": [
        {
          "id": 0,
          "value": 6.01999807
        },
        {
          "id": 1,
          "value": 1.0
        },
        {
          "id": 2,
          "value": 0.0
        },
        {
          "id": 3,
          "value": 1.0
        },
        {
          "id": 4,
          "value": 1.0
        }
      ],
      "leftModuleId": 31,
      "rightModuleId": 53,
      "data": {
        "shape": 0
      },
      "pos": [
        40,
        1
      ]
    },
    {
      "id": 67,
      "plugin": "Hora-VCO_VCF_VCA_Free",
      "version": "1.0.2",
      "model": "Amplitude-VCMixer",
      "params": [
        {
          "id": 0,
          "value": 0.772000074
        },
        {
          "id": 1,
          "value": 0.80400002
        },
        {
          "id": 2,
          "value": 1.0
        },
        {
          "id": 3,
          "value": 1.0
        },
        {
          "id": 4,
          "value": 0.840199947
        }
      ],
      "leftModuleId": 34,
      "rightModuleId": 31,
      "pos": [
        24,
        1
      ]
    },
    {
      "id": 68,
      "plugin": "Bidoo",
      "version": "1.1.8",
      "model": "vOId",
      "params": [],
      "leftModuleId": 53,
      "rightModuleId": 69,
      "pos": [
        68,
        1
      ]
    },
    {
      "id": 69,
      "plugin": "Core",
      "version": "1.1.6",
      "model": "Blank",
      "params": [],
      "leftModuleId": 68,
      "width": 120.0,
      "pos": [
        80,
        1
      ]
    }
  ],
  "cables": [
    {
      "id": 425,
      "outputModuleId": 27,
      "outputId": 0,
      "inputModuleId": 28,
      "inputId": 0,
      "color": "#c9b70e"
    },
    {
      "id": 430,
      "outputModuleId": 27,
      "outputId": 6,
      "inputModuleId": 29,
      "inputId": 5,
      "color": "#c91847"
    },
    {
      "id": 445,
      "outputModuleId": 35,
      "outputId": 3,
      "inputModuleId": 35,
      "inputId": 0,
      "color": "#c9b70e"
    },
    {
      "id": 449,
      "outputModuleId": 35,
      "outputId": 0,
      "inputModuleId": 32,
      "inputId": 5,
      "color": "#0986ad"
    },
    {
      "id": 450,
      "outputModuleId": 35,
      "outputId": 0,
      "inputModuleId": 34,
      "inputId": 5,
      "color": "#c9b70e"
    },
    {
      "id": 428,
      "outputModuleId": 29,
      "outputId": 0,
      "inputModuleId": 31,
      "inputId": 0,
      "color": "#0986ad"
    },
    {
      "id": 426,
      "outputModuleId": 27,
      "outputId": 1,
      "inputModuleId": 29,
      "inputId": 4,
      "color": "#0c8e15"
    },
    {
      "id": 571,
      "outputModuleId": 32,
      "outputId": 1,
      "inputModuleId": 53,
      "inputId": 7,
      "color": "#c91847"
    },
    {
      "id": 602,
      "outputModuleId": 53,
      "outputId": 0,
      "inputModuleId": 56,
      "inputId": 4,
      "color": "#0986ad"
    },
    {
      "id": 603,
      "outputModuleId": 53,
      "outputId": 1,
      "inputModuleId": 56,
      "inputId": 5,
      "color": "#c9b70e"
    },
    {
      "id": 646,
      "outputModuleId": 34,
      "outputId": 1,
      "inputModuleId": 67,
      "inputId": 1,
      "color": "#c9b70e"
    },
    {
      "id": 651,
      "outputModuleId": 56,
      "outputId": 0,
      "inputModuleId": 38,
      "inputId": 1,
      "color": "#c91847"
    },
    {
      "id": 570,
      "outputModuleId": 32,
      "outputId": 0,
      "inputModuleId": 53,
      "inputId": 6,
      "color": "#0c8e15"
    },
    {
      "id": 648,
      "outputModuleId": 67,
      "outputId": 1,
      "inputModuleId": 45,
      "inputId": 6,
      "color": "#0986ad"
    },
    {
      "id": 663,
      "outputModuleId": 67,
      "outputId": 0,
      "inputModuleId": 45,
      "inputId": 5,
      "color": "#c9b70e"
    },
    {
      "id": 665,
      "outputModuleId": 28,
      "outputId": 2,
      "inputModuleId": 67,
      "inputId": 2,
      "color": "#c91847"
    },
    {
      "id": 666,
      "outputModuleId": 28,
      "outputId": 3,
      "inputModuleId": 67,
      "inputId": 3,
      "color": "#0986ad"
    },
    {
      "id": 667,
      "outputModuleId": 31,
      "outputId": 1,
      "inputModuleId": 67,
      "inputId": 4,
      "color": "#c9b70e"
    },
    {
      "id": 668,
      "outputModuleId": 28,
      "outputId": 1,
      "inputModuleId": 31,
      "inputId": 3,
      "color": "#c91847"
    },
    {
      "id": 652,
      "outputModuleId": 56,
      "outputId": 0,
      "inputModuleId": 38,
      "inputId": 2,
      "color": "#0986ad"
    },
    {
      "id": 650,
      "outputModuleId": 45,
      "outputId": 1,
      "inputModuleId": 38,
      "inputId": 4,
      "color": "#0c8e15"
    },
    {
      "id": 649,
      "outputModuleId": 45,
      "outputId": 0,
      "inputModuleId": 38,
      "inputId": 3,
      "color": "#c9b70e"
    },
    {
      "id": 684,
      "outputModuleId": 31,
      "outputId": 0,
      "inputModuleId": 53,
      "inputId": 2,
      "color": "#c9b70e"
    },
    {
      "id": 686,
      "outputModuleId": 2,
      "outputId": 0,
      "inputModuleId": 22,
      "inputId": 2,
      "color": "#c91847"
    },
    {
      "id": 687,
      "outputModuleId": 2,
      "outputId": 0,
      "inputModuleId": 22,
      "inputId": 3,
      "color": "#0986ad"
    },
    {
      "id": 688,
      "outputModuleId": 2,
      "outputId": 0,
      "inputModuleId": 7,
      "inputId": 0,
      "color": "#c9b70e"
    },
    {
      "id": 685,
      "outputModuleId": 29,
      "outputId": 0,
      "inputModuleId": 2,
      "inputId": 3,
      "color": "#0c8e15"
    },
    {
      "id": 680,
      "outputModuleId": 29,
      "outputId": 0,
      "inputModuleId": 2,
      "inputId": 4,
      "color": "#0986ad"
    },
    {
      "id": 691,
      "outputModuleId": 2,
      "outputId": 1,
      "inputModuleId": 1,
      "inputId": 0,
      "color": "#0986ad"
    },
    {
      "id": 692,
      "outputModuleId": 2,
      "outputId": 2,
      "inputModuleId": 1,
      "inputId": 1,
      "color": "#c9b70e"
    },
    {
      "id": 693,
      "outputModuleId": 2,
      "outputId": 3,
      "inputModuleId": 1,
      "inputId": 2,
      "color": "#0c8e15"
    },
    {
      "id": 694,
      "outputModuleId": 2,
      "outputId": 4,
      "inputModuleId": 1,
      "inputId": 3,
      "color": "#c91847"
    },
    {
      "id": 656,
      "outputModuleId": 38,
      "outputId": 0,
      "inputModuleId": 2,
      "inputId": 2,
      "color": "#0c8e15"
    },
    {
      "id": 655,
      "outputModuleId": 38,
      "outputId": 0,
      "inputModuleId": 2,
      "inputId": 1,
      "color": "#c9b70e"
    },
    {
      "id": 645,
      "outputModuleId": 34,
      "outputId": 0,
      "inputModuleId": 67,
      "inputId": 0,
      "color": "#0986ad"
    },
    {
      "id": 699,
      "outputModuleId": 67,
      "outputId": 2,
      "inputModuleId": 28,
      "inputId": 1,
      "color": "#0986ad"
    },
    {
      "id": 700,
      "outputModuleId": 28,
      "outputId": 0,
      "inputModuleId": 67,
      "inputId": 5,
      "color": "#c9b70e"
    }
  ]
}