{
  "version": "1.1.6",
  "modules": [
    {
      "id": 2,
      "plugin": "Fundamental",
      "version": "1.4.0",
      "model": "VCMixer",
      "params": [
        {
          "id": 0,
          "value": 0.302000314
        },
        {
          "id": 1,
          "value": 1.00691998
        },
        {
          "id": 2,
          "value": 0.970302045
        },
        {
          "id": 3,
          "value": 1.0
        },
        {
          "id": 4,
          "value": 1.0
        }
      ],
      "leftModuleId": 7,
      "rightModuleId": 1,
      "pos": [
        54,
        0
      ]
    },
    {
      "id": 22,
      "plugin": "VCV-Recorder",
      "version": "1.0.1",
      "model": "Recorder",
      "params": [
        {
          "id": 0,
          "value": 1.55299985
        },
        {
          "id": 1,
          "value": 0.0
        }
      ],
      "data": {
        "format": "wav",
        "path": "/Users/raechelkula/Documents/GitHub/gitshow8/recording.wav",
        "incrementPath": false,
        "sampleRate": 44100,
        "depth": 16,
        "bitRate": 320000
      },
      "pos": [
        69,
        1
      ]
    },
    {
      "id": 24,
      "plugin": "Fundamental",
      "version": "1.4.0",
      "model": "Scope",
      "params": [
        {
          "id": 0,
          "value": 0.0
        },
        {
          "id": 1,
          "value": 0.0
        },
        {
          "id": 2,
          "value": 0.0
        },
        {
          "id": 3,
          "value": 0.0
        },
        {
          "id": 4,
          "value": 14.0
        },
        {
          "id": 5,
          "value": 0.0
        },
        {
          "id": 6,
          "value": 0.0
        },
        {
          "id": 7,
          "value": 0.0
        }
      ],
      "rightModuleId": 26,
      "data": {
        "lissajous": 0,
        "external": 0
      },
      "pos": [
        0,
        1
      ]
    },
    {
      "id": 26,
      "plugin": "Fundamental",
      "version": "1.4.0",
      "model": "LFO",
      "params": [
        {
          "id": 0,
          "value": 0.0
        },
        {
          "id": 1,
          "value": 0.0
        },
        {
          "id": 2,
          "value": 10.0
        },
        {
          "id": 3,
          "value": 0.0
        },
        {
          "id": 4,
          "value": 0.0
        },
        {
          "id": 5,
          "value": 0.00999999978
        },
        {
          "id": 6,
          "value": 0.0
        }
      ],
      "leftModuleId": 24,
      "pos": [
        13,
        1
      ]
    },
    {
      "id": 1,
      "plugin": "Core",
      "version": "1.1.6",
      "model": "AudioInterface",
      "params": [],
      "leftModuleId": 2,
      "data": {
        "audio": {
          "driver": 5,
          "deviceName": "Apple Inc.: Built-in Output",
          "offset": 0,
          "maxChannels": 8,
          "sampleRate": 44100,
          "blockSize": 256
        }
      },
      "pos": [
        64,
        0
      ]
    },
    {
      "id": 7,
      "plugin": "Fundamental",
      "version": "1.4.0",
      "model": "Scope",
      "params": [
        {
          "id": 0,
          "value": 0.0
        },
        {
          "id": 1,
          "value": 0.0
        },
        {
          "id": 2,
          "value": 0.0
        },
        {
          "id": 3,
          "value": 0.0
        },
        {
          "id": 4,
          "value": 14.0
        },
        {
          "id": 5,
          "value": 0.0
        },
        {
          "id": 6,
          "value": 0.0
        },
        {
          "id": 7,
          "value": 0.0
        }
      ],
      "rightModuleId": 2,
      "data": {
        "lissajous": 0,
        "external": 0
      },
      "pos": [
        41,
        0
      ]
    },
    {
      "id": 17,
      "plugin": "VCV-Prototype",
      "version": "1.2.0",
      "model": "Prototype",
      "params": [
        {
          "id": 0,
          "value": 0.190500379
        },
        {
          "id": 1,
          "value": 0.203999206
        },
        {
          "id": 2,
          "value": 0.0554999858
        },
        {
          "id": 3,
          "value": 0.0580000319
        },
        {
          "id": 4,
          "value": 0.0
        },
        {
          "id": 5,
          "value": 0.0
        },
        {
          "id": 6,
          "value": 0.0
        },
        {
          "id": 7,
          "value": 0.0
        },
        {
          "id": 8,
          "value": 0.0
        },
        {
          "id": 9,
          "value": 0.0
        },
        {
          "id": 10,
          "value": 0.0
        },
        {
          "id": 11,
          "value": 0.0
        }
      ],
      "rightModuleId": 4,
      "data": {
        "path": "/Users/raechelkula/Documents/GitHub/gitshow8/module.js",
        "script": "\t// knobs 0-5 in code correspond to knobs 1-6 on the prototype faceplate\n\t// inputs 0-5 in code correspond to inputs 1-6 on the prototype faceplate\n\t// outputs 0-5 in code correspond to outputs 1-6 on the prototype faceplate\n\nconfig.frameDivider = 1\nconfig.bufferSize = 1\n\nvar phase = 0\nfunction process(block) {\n\t// set pitch  according to knob 0\n\t// Knob ranges from -5 to 5 octaves\n\tvar pitch = block.knobs[0] * 10 - 5\n\t// modulate pitch using input 0 as cv\n\t// Input follows 1V/oct standard\n\tpitch += block.inputs[0][0]\t\t\n\n\t// The relationship between 1V/oct pitch and frequency is `freq = 2^pitch`.\n\n\t// https://vcvrack.com/manual/VoltageStandards.html#pitch-and-frequencies\n\tvar freq = 111.6256\n\tfreq += freq * Math.pow(2, pitch)\n\n\t// manipulate the buffer size of the this module\n\tbufSizeKnob = Math.round(block.knobs[1] * 120)\n\tblock.bufferSize += bufSizeKnob\n\tif (block.inputs[1][0] === 0){\n\t\t// ignore input, use only knob value\n\t} else {\n\t\t// modulate the bufferSize by the sum of input 1 and knob 1\n\t\tblock.bufferSize = block.inputs[1][0] + bufSizeKnob\n\t}\n\n\t// manipulate the frame division\n\tframeDivKnob = Math.round(block.knobs[2] * 32)\n\tframeDivider = config.frameDivider + frameDivKnob\n\n\tif (block.inputs[2][0] === 0){\n\t\t// ignore input 2, use only knob  value\n\t} else {\n\t\t// modulate the frameDivision by the sum of input 2 and knob 2\n\t\tframeDivider = frameDivider + Math.round(block.inputs[2][0] * 4)\n\t}\n\n\t// I *think* block.sampleTime corresponds to the sample-length? anyway, manipulating this results in some satisfying glitch\n\tblock.sampleTime += block.knobs[3] * 10\n\n\tif (block.inputs[3][0] !== 0){\n\t\t// ignore cv input, use only knob 3 value\n\t} else {\n\t\t// modulate sampleTime by adding input 3 as cv\n\t\tblock.sampleTime = block.sampleTime + (block.inputs[3][0] / 22050)\n\n\t\tif (block.inputs[4][0] !== 0){\n\t\t\t// if a cable is connected to input 4, add that value to sampleTime\n\t\t\tblock.sampleTime += block.inputs[4][0] / 100\n\t\t}\n\t}\n\n\t// Set all samples in output buffer\n\tvar deltaPhase = frameDivider * block.sampleTime * freq\n\tfor (var i = 0; i < block.bufferSize; i++) {\n\t\t// Accumulate phase\n\t\tphase += deltaPhase\n\t\t// Wrap phase around range [0, 1]\n\t\tphase %= 1\n\t\t// Convert phase to sine output\n\t\tblock.outputs[0][i] = Math.sin(2 * Math.PI * phase) * 5\n\t}\n}\n"
      },
      "pos": [
        0,
        0
      ]
    },
    {
      "id": 4,
      "plugin": "Fundamental",
      "version": "1.4.0",
      "model": "VCF",
      "params": [
        {
          "id": 0,
          "value": 1.0
        },
        {
          "id": 1,
          "value": 0.255000055
        },
        {
          "id": 2,
          "value": 0.243999943
        },
        {
          "id": 3,
          "value": 1.0
        },
        {
          "id": 4,
          "value": 0.190000251
        }
      ],
      "leftModuleId": 17,
      "pos": [
        15,
        0
      ]
    }
  ],
  "cables": [
    {
      "id": 343,
      "outputModuleId": 2,
      "outputId": 1,
      "inputModuleId": 22,
      "inputId": 2,
      "color": "#c91847"
    },
    {
      "id": 381,
      "outputModuleId": 2,
      "outputId": 0,
      "inputModuleId": 1,
      "inputId": 1,
      "color": "#0c8e15"
    },
    {
      "id": 380,
      "outputModuleId": 2,
      "outputId": 0,
      "inputModuleId": 1,
      "inputId": 0,
      "color": "#c9b70e"
    },
    {
      "id": 393,
      "outputModuleId": 2,
      "outputId": 0,
      "inputModuleId": 7,
      "inputId": 0,
      "color": "#0986ad"
    },
    {
      "id": 344,
      "outputModuleId": 2,
      "outputId": 2,
      "inputModuleId": 22,
      "inputId": 3,
      "color": "#0986ad"
    },
    {
      "id": 412,
      "outputModuleId": 26,
      "outputId": 0,
      "inputModuleId": 2,
      "inputId": 1,
      "color": "#0986ad"
    }
  ]
}