{
  "version": "1.1.6",
  "modules": [
    {
      "id": 2,
      "plugin": "Fundamental",
      "version": "1.4.0",
      "model": "VCMixer",
      "params": [
        {
          "id": 0,
          "value": 0.467999578
        },
        {
          "id": 1,
          "value": 0.907926142
        },
        {
          "id": 2,
          "value": 0.920653045
        },
        {
          "id": 3,
          "value": 0.547301173
        },
        {
          "id": 4,
          "value": 0.0
        }
      ],
      "leftModuleId": 22,
      "rightModuleId": 7,
      "pos": [
        76,
        0
      ]
    },
    {
      "id": 22,
      "plugin": "VCV-Recorder",
      "version": "1.0.1",
      "model": "Recorder",
      "params": [
        {
          "id": 0,
          "value": 1.55299985
        },
        {
          "id": 1,
          "value": 0.0
        }
      ],
      "leftModuleId": 1,
      "rightModuleId": 2,
      "data": {
        "format": "wav",
        "path": "/Users/hoveidar/Desktop/recording.wav",
        "incrementPath": false,
        "sampleRate": 44100,
        "depth": 16,
        "bitRate": 320000
      },
      "pos": [
        71,
        0
      ]
    },
    {
      "id": 1,
      "plugin": "Core",
      "version": "1.1.6",
      "model": "AudioInterface",
      "params": [],
      "rightModuleId": 22,
      "data": {
        "audio": {
          "driver": 6,
          "deviceName": "Speakers (Realtek(R) Audio)",
          "offset": 0,
          "maxChannels": 8,
          "sampleRate": 44100,
          "blockSize": 256
        }
      },
      "pos": [
        61,
        0
      ]
    },
    {
      "id": 7,
      "plugin": "Fundamental",
      "version": "1.4.0",
      "model": "Scope",
      "params": [
        {
          "id": 0,
          "value": 0.0
        },
        {
          "id": 1,
          "value": 0.0
        },
        {
          "id": 2,
          "value": 0.0
        },
        {
          "id": 3,
          "value": 0.0
        },
        {
          "id": 4,
          "value": 14.0
        },
        {
          "id": 5,
          "value": 0.0
        },
        {
          "id": 6,
          "value": 0.0
        },
        {
          "id": 7,
          "value": 0.0
        }
      ],
      "leftModuleId": 2,
      "data": {
        "lissajous": 0,
        "external": 0
      },
      "pos": [
        86,
        0
      ]
    },
    {
      "id": 27,
      "plugin": "Core",
      "version": "1.1.6",
      "model": "MIDIToCVInterface",
      "params": [],
      "rightModuleId": 28,
      "data": {
        "channels": 1,
        "polyMode": 0,
        "clockDivision": 24,
        "lastPitch": 8192,
        "lastMod": 0,
        "midi": {
          "driver": -11,
          "deviceName": "QWERTY keyboard (US)",
          "channel": -1
        }
      },
      "pos": [
        14,
        0
      ]
    },
    {
      "id": 28,
      "plugin": "Fundamental",
      "version": "1.4.0",
      "model": "VCO",
      "params": [
        {
          "id": 0,
          "value": 1.0
        },
        {
          "id": 1,
          "value": 1.0
        },
        {
          "id": 2,
          "value": -25.2720127
        },
        {
          "id": 3,
          "value": -0.00600003498
        },
        {
          "id": 4,
          "value": 0.495000124
        },
        {
          "id": 5,
          "value": 0.710699856
        },
        {
          "id": 6,
          "value": 0.499500096
        }
      ],
      "leftModuleId": 27,
      "rightModuleId": 31,
      "pos": [
        22,
        0
      ]
    },
    {
      "id": 29,
      "plugin": "Fundamental",
      "version": "1.4.0",
      "model": "ADSR",
      "params": [
        {
          "id": 0,
          "value": 0.300499737
        },
        {
          "id": 1,
          "value": 0.5
        },
        {
          "id": 2,
          "value": 0.5
        },
        {
          "id": 3,
          "value": 0.5
        }
      ],
      "leftModuleId": 31,
      "rightModuleId": 38,
      "pos": [
        40,
        0
      ]
    },
    {
      "id": 31,
      "plugin": "Fundamental",
      "version": "1.4.0",
      "model": "VCF",
      "params": [
        {
          "id": 0,
          "value": 0.594498932
        },
        {
          "id": 1,
          "value": 0.5
        },
        {
          "id": 2,
          "value": 0.289499909
        },
        {
          "id": 3,
          "value": 0.882000089
        },
        {
          "id": 4,
          "value": 0.0
        }
      ],
      "leftModuleId": 28,
      "rightModuleId": 29,
      "pos": [
        32,
        0
      ]
    },
    {
      "id": 32,
      "plugin": "cf",
      "version": "1.1.1",
      "model": "PLAYER",
      "params": [
        {
          "id": 0,
          "value": 6.16500282
        },
        {
          "id": 1,
          "value": 0.0
        },
        {
          "id": 2,
          "value": 0.0
        },
        {
          "id": 3,
          "value": 0.0
        },
        {
          "id": 4,
          "value": 0.0
        },
        {
          "id": 5,
          "value": 0.0
        },
        {
          "id": 6,
          "value": 0.0
        }
      ],
      "data": {
        "lastPath": "C:\\dispersion-lab\\gitshow8\\samples/noise1.wav",
        "oscstate": 0
      },
      "pos": [
        22,
        1
      ]
    },
    {
      "id": 34,
      "plugin": "cf",
      "version": "1.1.1",
      "model": "PLAYER",
      "params": [
        {
          "id": 0,
          "value": 8.46000004
        },
        {
          "id": 1,
          "value": 0.0
        },
        {
          "id": 2,
          "value": 0.0
        },
        {
          "id": 3,
          "value": 0.0
        },
        {
          "id": 4,
          "value": 0.0
        },
        {
          "id": 5,
          "value": 0.0
        },
        {
          "id": 6,
          "value": 0.0
        }
      ],
      "data": {
        "lastPath": "C:\\dispersion-lab\\gitshow8\\samples\\noise2.wav",
        "oscstate": 0
      },
      "pos": [
        36,
        1
      ]
    },
    {
      "id": 35,
      "plugin": "cf",
      "version": "1.1.1",
      "model": "METRO",
      "params": [
        {
          "id": 0,
          "value": 2.70900011
        },
        {
          "id": 1,
          "value": 0.0
        },
        {
          "id": 2,
          "value": 0.0
        },
        {
          "id": 3,
          "value": 0.0
        }
      ],
      "leftModuleId": 45,
      "data": {
        "onstate": 1
      },
      "pos": [
        14,
        1
      ]
    },
    {
      "id": 38,
      "plugin": "Fundamental",
      "version": "1.4.0",
      "model": "VCMixer",
      "params": [
        {
          "id": 0,
          "value": 0.19599995
        },
        {
          "id": 1,
          "value": 0.711500645
        },
        {
          "id": 2,
          "value": 0.741198957
        },
        {
          "id": 3,
          "value": 0.732713521
        },
        {
          "id": 4,
          "value": 0.719985723
        }
      ],
      "leftModuleId": 29,
      "pos": [
        48,
        0
      ]
    },
    {
      "id": 41,
      "plugin": "Blamsoft-XFXDistortionPack",
      "version": "1.0.0",
      "model": "Blamsoft-XFXOverdrive",
      "params": [
        {
          "id": 0,
          "value": 1.0
        },
        {
          "id": 1,
          "value": 0.666499972
        },
        {
          "id": 2,
          "value": 0.5
        },
        {
          "id": 3,
          "value": 1.0
        },
        {
          "id": 4,
          "value": 0.75
        }
      ],
      "pos": [
        48,
        2
      ]
    },
    {
      "id": 40,
      "plugin": "Blamsoft-XFXDistortionPack",
      "version": "1.0.0",
      "model": "Blamsoft-XFXTube",
      "params": [
        {
          "id": 0,
          "value": 1.0
        },
        {
          "id": 1,
          "value": 0.693499982
        },
        {
          "id": 2,
          "value": 0.765500069
        },
        {
          "id": 3,
          "value": 0.288499892
        },
        {
          "id": 4,
          "value": 0.338000089
        },
        {
          "id": 5,
          "value": 1.0
        },
        {
          "id": 6,
          "value": 0.576999843
        },
        {
          "id": 7,
          "value": 0.0
        },
        {
          "id": 8,
          "value": 0.523499906
        },
        {
          "id": 9,
          "value": 3.0
        }
      ],
      "pos": [
        30,
        2
      ]
    },
    {
      "id": 45,
      "plugin": "Blamsoft-XFXReverb",
      "version": "1.0.0",
      "model": "Blamsoft-XFXReverb",
      "params": [
        {
          "id": 0,
          "value": 1.0
        },
        {
          "id": 1,
          "value": 0.759999871
        },
        {
          "id": 2,
          "value": 0.0
        },
        {
          "id": 3,
          "value": 0.390500039
        },
        {
          "id": 4,
          "value": 0.261500299
        },
        {
          "id": 5,
          "value": 0.212500006
        },
        {
          "id": 6,
          "value": 0.25
        },
        {
          "id": 7,
          "value": 0.398000032
        },
        {
          "id": 8,
          "value": 0.391000003
        }
      ],
      "rightModuleId": 35,
      "pos": [
        0,
        1
      ]
    },
    {
      "id": 46,
      "plugin": "Befaco",
      "version": "1.0.0",
      "model": "SpringReverb",
      "params": [
        {
          "id": 0,
          "value": 0.743000031
        },
        {
          "id": 1,
          "value": 0.0
        },
        {
          "id": 2,
          "value": 0.972000182
        },
        {
          "id": 3,
          "value": 0.671000063
        }
      ],
      "pos": [
        0,
        2
      ]
    }
  ],
  "cables": [
    {
      "id": 343,
      "outputModuleId": 2,
      "outputId": 1,
      "inputModuleId": 22,
      "inputId": 2,
      "color": "#c91847"
    },
    {
      "id": 381,
      "outputModuleId": 2,
      "outputId": 0,
      "inputModuleId": 1,
      "inputId": 1,
      "color": "#0c8e15"
    },
    {
      "id": 380,
      "outputModuleId": 2,
      "outputId": 0,
      "inputModuleId": 1,
      "inputId": 0,
      "color": "#c9b70e"
    },
    {
      "id": 393,
      "outputModuleId": 2,
      "outputId": 0,
      "inputModuleId": 7,
      "inputId": 0,
      "color": "#0986ad"
    },
    {
      "id": 344,
      "outputModuleId": 2,
      "outputId": 2,
      "inputModuleId": 22,
      "inputId": 3,
      "color": "#0986ad"
    },
    {
      "id": 425,
      "outputModuleId": 27,
      "outputId": 0,
      "inputModuleId": 28,
      "inputId": 0,
      "color": "#c9b70e"
    },
    {
      "id": 430,
      "outputModuleId": 27,
      "outputId": 6,
      "inputModuleId": 29,
      "inputId": 5,
      "color": "#c91847"
    },
    {
      "id": 445,
      "outputModuleId": 35,
      "outputId": 3,
      "inputModuleId": 35,
      "inputId": 0,
      "color": "#c9b70e"
    },
    {
      "id": 449,
      "outputModuleId": 35,
      "outputId": 0,
      "inputModuleId": 32,
      "inputId": 5,
      "color": "#0986ad"
    },
    {
      "id": 450,
      "outputModuleId": 35,
      "outputId": 0,
      "inputModuleId": 34,
      "inputId": 5,
      "color": "#c9b70e"
    },
    {
      "id": 463,
      "outputModuleId": 38,
      "outputId": 0,
      "inputModuleId": 2,
      "inputId": 1,
      "color": "#c9b70e"
    },
    {
      "id": 464,
      "outputModuleId": 38,
      "outputId": 0,
      "inputModuleId": 2,
      "inputId": 2,
      "color": "#0c8e15"
    },
    {
      "id": 471,
      "outputModuleId": 34,
      "outputId": 0,
      "inputModuleId": 41,
      "inputId": 4,
      "color": "#c91847"
    },
    {
      "id": 472,
      "outputModuleId": 34,
      "outputId": 1,
      "inputModuleId": 41,
      "inputId": 5,
      "color": "#0986ad"
    },
    {
      "id": 473,
      "outputModuleId": 41,
      "outputId": 0,
      "inputModuleId": 38,
      "inputId": 3,
      "color": "#c9b70e"
    },
    {
      "id": 474,
      "outputModuleId": 41,
      "outputId": 1,
      "inputModuleId": 38,
      "inputId": 4,
      "color": "#0c8e15"
    },
    {
      "id": 428,
      "outputModuleId": 29,
      "outputId": 0,
      "inputModuleId": 31,
      "inputId": 0,
      "color": "#0986ad"
    },
    {
      "id": 426,
      "outputModuleId": 27,
      "outputId": 1,
      "inputModuleId": 29,
      "inputId": 4,
      "color": "#0c8e15"
    },
    {
      "id": 429,
      "outputModuleId": 31,
      "outputId": 0,
      "inputModuleId": 2,
      "inputId": 3,
      "color": "#0c8e15"
    },
    {
      "id": 431,
      "outputModuleId": 29,
      "outputId": 0,
      "inputModuleId": 2,
      "inputId": 7,
      "color": "#0986ad"
    },
    {
      "id": 486,
      "outputModuleId": 29,
      "outputId": 0,
      "inputModuleId": 40,
      "inputId": 0,
      "color": "#0c8e15"
    },
    {
      "id": 470,
      "outputModuleId": 40,
      "outputId": 1,
      "inputModuleId": 38,
      "inputId": 2,
      "color": "#0c8e15"
    },
    {
      "id": 469,
      "outputModuleId": 40,
      "outputId": 0,
      "inputModuleId": 38,
      "inputId": 1,
      "color": "#c9b70e"
    },
    {
      "id": 493,
      "outputModuleId": 32,
      "outputId": 0,
      "inputModuleId": 45,
      "inputId": 5,
      "color": "#c9b70e"
    },
    {
      "id": 494,
      "outputModuleId": 32,
      "outputId": 1,
      "inputModuleId": 45,
      "inputId": 6,
      "color": "#0c8e15"
    },
    {
      "id": 495,
      "outputModuleId": 45,
      "outputId": 0,
      "inputModuleId": 40,
      "inputId": 3,
      "color": "#c91847"
    },
    {
      "id": 496,
      "outputModuleId": 45,
      "outputId": 1,
      "inputModuleId": 40,
      "inputId": 4,
      "color": "#0986ad"
    },
    {
      "id": 501,
      "outputModuleId": 46,
      "outputId": 1,
      "inputModuleId": 31,
      "inputId": 3,
      "color": "#0986ad"
    },
    {
      "id": 502,
      "outputModuleId": 28,
      "outputId": 2,
      "inputModuleId": 46,
      "inputId": 3,
      "color": "#c9b70e"
    }
  ]
}